<svg width="136" height="39" viewBox="0 0 136 39" fill="none" xmlns="http://www.w3.org/2000/svg">
<g clip-path="url(#clip0_18_374)">
<path d="M29.0038 15.5178C27.5156 12.999 25.4995 10.1679 23.0116 7.1031C22.6673 6.67892 22.3137 6.25014 21.9608 5.82866C21.548 5.33572 21.0643 4.91891 20.5306 4.58683C20.5249 4.58324 20.5191 4.57966 20.5133 4.57607C20.4398 4.53066 20.3653 4.48667 20.2899 4.44451C20.2839 4.4412 20.278 4.43802 20.272 4.4347C20.1212 4.35099 19.9667 4.2739 19.8092 4.20339C19.799 4.19885 19.789 4.19425 19.7789 4.18979C19.7036 4.15662 19.6276 4.12502 19.551 4.09491C19.5403 4.09071 19.5294 4.08665 19.5187 4.08252C19.362 4.02216 19.2026 3.96815 19.041 3.92085C19.0289 3.91733 19.017 3.91374 19.0049 3.91029C18.9268 3.88796 18.8482 3.86725 18.7691 3.84803C18.7568 3.84505 18.7445 3.84228 18.7322 3.83937C18.569 3.80086 18.4039 3.76905 18.237 3.74388C18.2249 3.74205 18.2129 3.74016 18.2008 3.7384C18.1191 3.72662 18.0371 3.71654 17.9546 3.70801C17.944 3.70693 17.9333 3.70598 17.9227 3.70496C17.7509 3.68825 17.5776 3.67871 17.4032 3.67647C17.3959 3.67641 17.3887 3.67627 17.3814 3.6762C17.3623 3.67593 17.3435 3.67532 17.3247 3.67532C16.7773 3.67532 16.2404 3.74828 15.7256 3.88769C15.7223 3.88863 15.7189 3.88945 15.7155 3.89039C15.6317 3.9132 15.5487 3.93797 15.4662 3.96429C15.4541 3.96815 15.4422 3.97201 15.4302 3.97593C15.3511 4.00172 15.2727 4.02886 15.1949 4.05789C15.1827 4.06242 15.1706 4.06729 15.1585 4.0719C15.0876 4.09883 15.0172 4.12698 14.9475 4.15662C14.9365 4.16129 14.9253 4.16569 14.9142 4.17043C14.8432 4.20109 14.7729 4.2335 14.7031 4.26687C14.6829 4.27648 14.6627 4.28609 14.6427 4.2959C14.5763 4.32852 14.5105 4.36229 14.4454 4.39741C14.4244 4.40871 14.4037 4.42028 14.3828 4.43179C14.3206 4.46624 14.2587 4.50156 14.1976 4.53831C14.18 4.54893 14.1625 4.5599 14.145 4.57066C14.0889 4.6051 14.0335 4.64056 13.9786 4.67697C13.96 4.68929 13.9413 4.70134 13.9229 4.71386C13.8614 4.75554 13.8008 4.79858 13.7408 4.84257C13.7221 4.85631 13.7035 4.87018 13.6849 4.88419C13.6241 4.92987 13.5639 4.9765 13.5048 5.02455C13.4915 5.03538 13.4784 5.04661 13.4652 5.05758C13.4093 5.1038 13.3542 5.15103 13.3 5.19935C13.2904 5.20788 13.2807 5.21614 13.2712 5.22473C13.2113 5.27874 13.1526 5.3345 13.0947 5.39108C13.0823 5.40326 13.0698 5.41537 13.0574 5.42769C13.0001 5.4848 12.9436 5.54321 12.8884 5.60283C12.8786 5.61339 12.8691 5.62408 12.8594 5.6347C12.8016 5.69798 12.7446 5.76234 12.6893 5.82839C8.95576 10.2865 4.64029 16.128 3.15321 20.8242C3.09603 21.0048 3.04297 21.1837 2.99438 21.3608C2.89706 21.715 2.81734 22.0619 2.75664 22.4002C2.66555 22.9077 2.61743 23.3961 2.61743 23.8615C2.61743 27.727 4.14877 31.3606 6.92931 34.0927C9.70674 36.8217 13.3985 38.3247 17.3248 38.3247C17.4494 38.3247 17.5737 38.3229 17.6977 38.3199C17.7231 38.3193 17.7484 38.318 17.7738 38.3173C17.8755 38.3143 17.977 38.3106 18.0784 38.3056C18.0998 38.3045 18.1211 38.3031 18.1425 38.3019C18.2503 38.2961 18.3578 38.2893 18.4652 38.2812C18.4788 38.2802 18.4925 38.279 18.5061 38.278C18.6236 38.2688 18.7408 38.2583 18.8578 38.2464C18.8623 38.246 18.8668 38.2455 18.8714 38.245C20.1962 38.1091 21.4891 37.7988 22.7312 37.3158C25.4419 36.2615 27.7555 34.4542 29.4217 32.0891C31.1293 29.6656 32.0318 26.8205 32.0318 23.8615C32.032 21.7258 31.0132 18.9186 29.0038 15.5178ZM13.4207 9.92899C13.1219 9.70411 12.6975 9.76413 12.4727 10.0629C12.4727 10.0629 12.2709 10.331 12.0473 10.6357C7.87615 16.3182 5.76118 20.768 5.76118 23.8615C5.76118 27.171 6.92715 30.4059 9.04428 32.9704C10.0995 34.2486 11.3679 35.3349 12.7796 36.1879C12.73 36.1702 12.6804 36.1522 12.6311 36.1339C12.5866 36.1175 12.5422 36.101 12.4979 36.0842C12.4414 36.0626 12.3852 36.0405 12.3291 36.0182C12.2855 36.0009 12.2418 35.9835 12.1984 35.9657C12.1423 35.9427 12.0864 35.9191 12.0306 35.8954C11.9878 35.8772 11.9449 35.8589 11.9024 35.8403C11.8467 35.8159 11.7913 35.791 11.7361 35.7659C11.694 35.7467 11.6518 35.7276 11.61 35.708C11.5549 35.6823 11.5 35.6561 11.4454 35.6297C11.404 35.6096 11.3627 35.5896 11.3215 35.5692C11.267 35.5421 11.2127 35.5146 11.1586 35.4867C11.118 35.4659 11.0773 35.4449 11.0369 35.4237C10.9829 35.3953 10.9292 35.3665 10.8758 35.3373C10.8359 35.3157 10.796 35.2939 10.7564 35.2718C10.703 35.2421 10.6499 35.212 10.597 35.1815C10.5579 35.1591 10.5188 35.1364 10.4799 35.1135C10.4273 35.0825 10.3748 35.0511 10.3226 35.0194C10.2842 34.9961 10.2459 34.9727 10.2078 34.949C10.1558 34.9167 10.104 34.8841 10.0525 34.851C10.0149 34.8269 9.97737 34.8027 9.93995 34.7782C9.88872 34.7447 9.83769 34.7108 9.787 34.6766C9.75005 34.6517 9.71317 34.6267 9.67649 34.6014C9.62607 34.5666 9.57579 34.5316 9.52592 34.4962C9.48971 34.4705 9.45364 34.4447 9.41764 34.4186C9.36803 34.3828 9.31863 34.3466 9.26957 34.3099C9.23397 34.2834 9.19857 34.2568 9.16325 34.2298C9.11459 34.1929 9.06613 34.1556 9.01809 34.1179C8.9831 34.0905 8.94831 34.0629 8.91353 34.0352C8.86589 33.9972 8.81845 33.9589 8.77135 33.9201C8.73703 33.892 8.70293 33.8636 8.66889 33.835C8.62219 33.7959 8.5757 33.7566 8.52954 33.7168C8.49584 33.6878 8.46234 33.6586 8.42891 33.6291C8.3833 33.5891 8.33789 33.5487 8.29282 33.5081C8.25973 33.4782 8.22697 33.4481 8.19415 33.4179C8.14955 33.3768 8.10516 33.3355 8.06117 33.2938C8.02882 33.2632 7.99674 33.2323 7.9646 33.2012C7.92108 33.1592 7.87764 33.1169 7.83473 33.0743C7.80299 33.0429 7.77159 33.0111 7.74012 32.9793C7.69776 32.9364 7.65546 32.8932 7.61371 32.8497C7.58271 32.8175 7.55199 32.7849 7.52119 32.7522C7.47991 32.7084 7.43863 32.6643 7.39796 32.6199C7.36764 32.5868 7.33766 32.5535 7.30761 32.52C7.26755 32.4754 7.22749 32.4306 7.18803 32.3854C7.15832 32.3513 7.12895 32.317 7.09945 32.2826C7.0606 32.2372 7.02189 32.1917 6.98359 32.1458C6.95456 32.1109 6.92586 32.0757 6.8971 32.0404C6.85947 31.9943 6.82198 31.9481 6.78496 31.9015C6.75661 31.8657 6.72859 31.8295 6.70051 31.7934C6.66416 31.7466 6.62789 31.6997 6.59209 31.6524C6.56448 31.6158 6.53727 31.5789 6.51 31.5419C6.47488 31.4943 6.43976 31.4467 6.40517 31.3987C6.37831 31.3613 6.35185 31.3235 6.32532 31.2857C6.29148 31.2375 6.25764 31.1893 6.22435 31.1406C6.19823 31.1023 6.17258 31.0636 6.14679 31.025C6.11424 30.9762 6.08169 30.9274 6.04975 30.8782C6.02437 30.839 5.99946 30.7994 5.97449 30.7599C5.94323 30.7105 5.91196 30.6611 5.88131 30.6113C5.85674 30.5713 5.83272 30.5309 5.80849 30.4905C5.77858 30.4407 5.7486 30.3907 5.71929 30.3404C5.69547 30.2995 5.67226 30.2581 5.64891 30.2169C5.62035 30.1665 5.59173 30.1162 5.56378 30.0654C5.54077 30.0235 5.51837 29.9811 5.49576 29.9389C5.46863 29.8882 5.44135 29.8375 5.41489 29.7864C5.3927 29.7435 5.37117 29.7003 5.34945 29.6572C5.32367 29.6061 5.29775 29.555 5.27264 29.5035C5.25132 29.4598 5.23068 29.4156 5.20984 29.3716C5.18541 29.3201 5.16091 29.2687 5.13716 29.2168C5.11672 29.1722 5.09709 29.1272 5.07713 29.0824C5.05412 29.0305 5.03091 28.9787 5.00858 28.9265C4.98902 28.8809 4.97027 28.8349 4.95125 28.789C4.92967 28.737 4.90788 28.685 4.88696 28.6326C4.86835 28.586 4.85062 28.5391 4.83255 28.4922C4.81239 28.4399 4.79195 28.3877 4.77239 28.335C4.7548 28.2876 4.73808 28.2397 4.72096 28.192C4.70221 28.1395 4.68313 28.0871 4.66506 28.0343C4.64848 27.9859 4.63278 27.937 4.61674 27.8884C4.59935 27.8357 4.58168 27.7831 4.56497 27.7301C4.5494 27.6808 4.53479 27.6309 4.51983 27.5814C4.50386 27.5286 4.48762 27.4759 4.47232 27.4228C4.45784 27.3725 4.4443 27.3216 4.43036 27.271C4.41588 27.2182 4.40099 27.1655 4.38712 27.1124C4.37372 27.061 4.36127 27.009 4.34848 26.9573C4.33542 26.9047 4.32195 26.852 4.30957 26.7991C4.29718 26.7462 4.28588 26.6928 4.2741 26.6397C4.2626 26.5875 4.25062 26.5354 4.23972 26.483C4.22849 26.4288 4.21841 26.3742 4.20785 26.3198C4.19777 26.2678 4.18714 26.216 4.17773 26.1638C4.16772 26.1085 4.15885 26.0528 4.14958 25.9973C4.14092 25.9456 4.13172 25.894 4.12366 25.8421C4.1148 25.785 4.10722 25.7275 4.0991 25.6701C4.09192 25.6194 4.08421 25.5688 4.07758 25.5178C4.06993 25.4584 4.06357 25.3986 4.05667 25.3389C4.05098 25.2897 4.04469 25.2405 4.03961 25.1911C4.03332 25.1299 4.02831 25.0682 4.0229 25.0067C4.01863 24.9583 4.01362 24.9102 4.0099 24.8616C4.00489 24.7971 4.00138 24.732 3.99731 24.6673C3.99447 24.6216 3.99089 24.5761 3.98858 24.5303C3.9848 24.4572 3.98256 24.3839 3.98006 24.3105C3.97877 24.2725 3.97667 24.2347 3.97573 24.1966C3.97288 24.085 3.9714 23.9731 3.9714 23.8609C3.9716 22.4167 4.54338 20.553 5.64411 18.3455C7.25293 15.1192 9.99179 11.1582 13.7269 6.69767C13.7838 6.62979 13.8424 6.56387 13.9024 6.49999C13.9058 6.4964 13.9095 6.49302 13.9128 6.48943C14.817 5.53475 16.0723 5.03396 17.3381 5.03396C17.7962 5.03396 18.2558 5.10001 18.7004 5.23339C18.7127 5.23712 18.7249 5.24091 18.7371 5.2447C18.7963 5.26304 18.8553 5.28259 18.9139 5.30337C18.9375 5.31176 18.9611 5.32063 18.9846 5.32942C19.0335 5.34763 19.0824 5.36637 19.1308 5.38634C19.1404 5.39026 19.1498 5.39459 19.1593 5.39859C19.0053 5.54713 18.8588 5.70407 18.7207 5.86906C14.1263 11.3558 8.64946 18.9381 8.64946 23.9019C8.64946 27.2039 9.81062 30.433 11.919 32.9946C12.8299 34.1013 13.9015 35.0642 15.087 35.8578C10.3482 33.7926 7.11515 29.0876 7.11515 23.8611C7.11515 21.1014 9.1981 16.805 13.1387 11.4365C13.3568 11.1394 13.5536 10.8779 13.5545 10.8766C13.7795 10.5783 13.7195 10.1537 13.4207 9.92899ZM20.2533 36.6544C14.2112 35.2451 10.0038 30.0218 10.0038 23.9024C10.0038 20.3469 13.4683 14.2514 19.7591 6.73888C19.9429 6.51934 20.1458 6.31828 20.3647 6.13739C20.5646 6.30691 20.7516 6.49383 20.9226 6.69807C21.1537 6.97412 21.3851 7.25327 21.6139 7.53223C21.6079 7.53954 21.6022 7.54691 21.5961 7.55436C21.5333 7.63273 21.4714 7.71055 21.4092 7.78865C21.3547 7.85693 21.2999 7.92542 21.2458 7.99357C21.2292 8.01448 21.2123 8.03559 21.1957 8.0565C21.1461 8.1191 21.0976 8.18116 21.0484 8.24356C21.0366 8.25858 21.0248 8.27367 21.0129 8.28869C20.9761 8.33546 20.939 8.38242 20.9023 8.42912C20.8706 8.46966 20.8385 8.51033 20.8069 8.5508C20.7461 8.62856 20.6863 8.70577 20.6262 8.78312C20.6057 8.80958 20.5851 8.83598 20.5647 8.86244C20.5197 8.92057 20.4744 8.97884 20.4298 9.03677C20.3517 9.13801 20.2746 9.23871 20.1976 9.33941C20.1535 9.3972 20.1092 9.45506 20.0654 9.51272C19.9822 9.62209 19.8999 9.73097 19.8181 9.83959C19.7842 9.88466 19.7504 9.92973 19.7166 9.97467C19.6276 10.0934 19.5392 10.2117 19.4519 10.3295C19.4316 10.3569 19.4115 10.3841 19.3913 10.4115C18.8511 11.1419 18.3426 11.8554 17.8667 12.5507C17.8644 12.5541 17.8621 12.5575 17.8597 12.5609C17.7713 12.6901 17.6843 12.8185 17.5982 12.9464C17.5834 12.9683 17.5686 12.9902 17.5539 13.0122C17.4742 13.131 17.3954 13.2492 17.3176 13.3669C17.2975 13.3972 17.2776 13.4276 17.2577 13.4579C17.1835 13.5706 17.1099 13.6828 17.0376 13.7946C17.0157 13.8284 16.9941 13.862 16.9724 13.8957C16.902 14.005 16.8318 14.1141 16.7631 14.2224C16.7598 14.2275 16.7565 14.2327 16.7532 14.2378C16.7528 14.2384 16.7526 14.239 16.7522 14.2397C16.4768 14.6739 16.2149 15.1003 15.9683 15.5177C13.9589 18.9185 12.94 21.7259 12.94 23.8615C12.94 26.8205 13.8425 29.6656 15.55 32.0891C16.8729 33.9666 18.6037 35.4928 20.6172 36.5696C20.4963 36.5998 20.3749 36.6277 20.2533 36.6544ZM21.7098 23.8615C21.7098 21.5376 20.5046 18.4246 18.1267 14.6041C18.1437 14.5778 18.1608 14.5514 18.1779 14.525C18.3795 14.2141 18.5882 13.8991 18.8044 13.5798C18.8193 13.5576 18.8343 13.5354 18.8494 13.5133C19.0843 13.1673 19.3273 12.8165 19.5789 12.4612C19.582 12.4568 19.5851 12.4525 19.5882 12.4481C19.6694 12.3334 19.7516 12.2182 19.8346 12.1026C19.8445 12.0887 19.8546 12.0747 19.8646 12.0608C23.512 17.139 25.4361 21.2088 25.4361 23.8616C25.4361 28.0996 23.3622 32.0479 19.8661 34.5125C19.2943 34.1092 18.7537 33.6626 18.2529 33.1765C20.4868 30.5707 21.7098 27.2878 21.7098 23.8615ZM17.314 32.1888C15.3966 29.8991 14.2939 26.9848 14.2939 23.8615C14.2939 21.9715 15.2494 19.3959 17.1339 16.2065C17.1961 16.101 17.2607 15.9943 17.3249 15.8877C19.3362 19.2231 20.3557 21.9026 20.3557 23.8615C20.3557 26.9164 19.2802 29.8458 17.314 32.1888ZM25.0958 34.5331C25.0809 34.5435 25.0658 34.5536 25.0509 34.5639C24.9577 34.6284 24.8635 34.6917 24.7684 34.7539C24.6788 34.8125 24.5888 34.8704 24.4976 34.927C24.4917 34.9307 24.4858 34.9345 24.4798 34.9382C23.8531 35.3263 23.1871 35.6672 22.4861 35.9554C22.48 35.9529 22.474 35.9502 22.468 35.9477C22.3668 35.9058 22.2663 35.8625 22.166 35.8181C22.1203 35.7978 22.0749 35.7767 22.0295 35.7559C21.9704 35.7289 21.9113 35.7018 21.8526 35.6739C21.7966 35.6473 21.7408 35.6203 21.6851 35.5929C21.6405 35.5709 21.5959 35.5487 21.5515 35.5262C21.4869 35.4935 21.4224 35.4607 21.3584 35.4269C21.3313 35.4126 21.3045 35.398 21.2774 35.3836C21.218 35.3518 21.1588 35.3197 21.0999 35.287C24.6815 32.5535 26.7902 28.3558 26.7902 23.8615C26.7902 20.8175 24.7439 16.4628 20.7062 10.9123C20.8447 10.7268 20.9854 10.5402 21.128 10.3524C21.1314 10.348 21.1347 10.3436 21.138 10.3391C21.2768 10.1566 21.4175 9.97304 21.56 9.78863C21.5664 9.78038 21.5726 9.77225 21.5789 9.76407C21.7106 9.59373 21.8443 9.42251 21.9789 9.25089C21.9942 9.2314 22.0093 9.21198 22.0247 9.19242C22.0324 9.18247 22.0402 9.17252 22.0481 9.16258C22.1618 9.01802 22.2769 8.87286 22.3925 8.7275C22.4238 8.68818 22.4547 8.64906 22.4862 8.60961C24.002 10.5083 25.3257 12.3081 26.4433 13.9893C26.7481 14.4478 27.0375 14.8974 27.3114 15.3379C27.4939 15.6316 27.6695 15.9212 27.8381 16.2065C29.7225 19.3959 30.6781 21.9714 30.6781 23.8615C30.6781 24.6105 30.6147 25.3475 30.4918 26.0667C29.9049 29.502 27.9621 32.5325 25.0958 34.5331Z" fill="url(#paint0_linear_18_374)"/>
<path d="M15.1947 7.8166L15.1775 7.79962C14.911 7.53724 14.4823 7.54056 14.22 7.80699C13.9577 8.07343 13.9609 8.50214 14.2274 8.76445L14.2446 8.78137C14.3765 8.91124 14.5481 8.976 14.7196 8.976C14.8946 8.976 15.0696 8.9086 15.2021 8.77406C15.4645 8.50763 15.4612 8.07898 15.1947 7.8166Z" fill="url(#paint1_linear_18_374)"/>
</g>
<path d="M50.7001 12.384L57.7321 21H54.4441L47.8201 13.008V21H45.0601V4.2H47.8201V11.736L54.2041 4.2H57.4921L50.7001 12.384ZM69.8435 16.104H60.2915C60.4835 17 60.9155 17.696 61.5875 18.192C62.2755 18.688 63.1235 18.936 64.1315 18.936C65.4915 18.936 66.5235 18.44 67.2275 17.448L69.3635 18.696C68.1955 20.44 66.4435 21.312 64.1075 21.312C62.1715 21.312 60.5955 20.72 59.3795 19.536C58.1795 18.336 57.5795 16.824 57.5795 15C57.5795 13.224 58.1715 11.728 59.3555 10.512C60.5235 9.296 62.0435 8.688 63.9155 8.688C65.6595 8.688 67.0995 9.304 68.2355 10.536C69.3715 11.768 69.9395 13.264 69.9395 15.024C69.9395 15.344 69.9075 15.704 69.8435 16.104ZM60.2675 13.992H67.3235C67.1475 13.048 66.7475 12.32 66.1235 11.808C65.5155 11.296 64.7715 11.04 63.8915 11.04C62.9315 11.04 62.1315 11.304 61.4915 11.832C60.8515 12.36 60.4435 13.08 60.2675 13.992ZM74.8123 9V11.016C75.4683 9.528 76.7003 8.784 78.5083 8.784V11.592C77.5323 11.528 76.6683 11.768 75.9163 12.312C75.1803 12.84 74.8123 13.72 74.8123 14.952V21H72.2203V9H74.8123ZM89.3649 10.704V9H91.9569V21H89.3649V19.272C88.3889 20.632 86.9889 21.312 85.1649 21.312C83.5169 21.312 82.1089 20.704 80.9409 19.488C79.7729 18.272 79.1889 16.776 79.1889 15C79.1889 13.224 79.7729 11.728 80.9409 10.512C82.1089 9.296 83.5169 8.688 85.1649 8.688C86.9889 8.688 88.3889 9.36 89.3649 10.704ZM82.8609 17.76C83.5809 18.48 84.4849 18.84 85.5729 18.84C86.6609 18.84 87.5649 18.48 88.2849 17.76C89.0049 17.024 89.3649 16.104 89.3649 15C89.3649 13.896 89.0049 12.984 88.2849 12.264C87.5649 11.528 86.6609 11.16 85.5729 11.16C84.4849 11.16 83.5809 11.528 82.8609 12.264C82.1409 12.984 81.7809 13.896 81.7809 15C81.7809 16.088 82.1409 17.008 82.8609 17.76ZM101.674 9V11.496H98.6981V17.256C98.6981 17.752 98.8101 18.112 99.0341 18.336C99.2581 18.544 99.5861 18.664 100.018 18.696C100.466 18.712 101.018 18.704 101.674 18.672V21C99.6901 21.24 98.2661 21.072 97.4021 20.496C96.5381 19.904 96.1061 18.824 96.1061 17.256V11.496H93.8981V9H96.1061V6.408L98.6981 5.64V9H101.674ZM106.473 6.72C106.153 7.04 105.769 7.2 105.321 7.2C104.873 7.2 104.481 7.04 104.145 6.72C103.825 6.384 103.665 5.992 103.665 5.544C103.665 5.096 103.825 4.712 104.145 4.392C104.465 4.056 104.857 3.888 105.321 3.888C105.785 3.888 106.177 4.056 106.497 4.392C106.817 4.712 106.977 5.096 106.977 5.544C106.977 5.992 106.809 6.384 106.473 6.72ZM106.617 21H104.025V9H106.617V21ZM115.939 8.688C117.331 8.688 118.443 9.136 119.275 10.032C120.123 10.912 120.547 12.112 120.547 13.632V21H117.955V13.896C117.955 13 117.715 12.312 117.235 11.832C116.755 11.352 116.099 11.112 115.267 11.112C114.323 11.112 113.579 11.408 113.035 12C112.491 12.576 112.219 13.432 112.219 14.568V21H109.627V9H112.219V10.536C113.019 9.304 114.259 8.688 115.939 8.688Z" fill="white"/>
<path d="M50.8681 32.192C51.4228 32.4267 51.8601 32.784 52.1801 33.264C52.5001 33.744 52.6601 34.2827 52.6601 34.88C52.6601 35.744 52.3561 36.48 51.7481 37.088C51.1401 37.696 50.4041 38 49.5401 38H44.6601V26.8H49.1721C49.9935 26.8 50.7028 27.0987 51.3001 27.696C51.8868 28.2827 52.1801 28.9867 52.1801 29.808C52.1801 30.8533 51.7428 31.648 50.8681 32.192ZM49.1721 27.856H45.7801V31.76H49.1721C49.6841 31.76 50.1268 31.5733 50.5001 31.2C50.8735 30.8053 51.0601 30.3413 51.0601 29.808C51.0601 29.2853 50.8735 28.8267 50.5001 28.432C50.1268 28.048 49.6841 27.856 49.1721 27.856ZM45.7801 36.944H49.5401C50.0948 36.944 50.5641 36.7467 50.9481 36.352C51.3428 35.9573 51.5401 35.4667 51.5401 34.88C51.5401 34.304 51.3428 33.8187 50.9481 33.424C50.5641 33.0187 50.0948 32.816 49.5401 32.816H45.7801V36.944ZM61.126 36.992C60.3047 37.792 59.3127 38.192 58.15 38.192C56.966 38.192 55.9687 37.792 55.158 36.992C54.3473 36.1813 53.942 35.184 53.942 34C53.942 32.816 54.3473 31.824 55.158 31.024C55.9687 30.2133 56.966 29.808 58.15 29.808C59.3233 29.808 60.3153 30.2133 61.126 31.024C61.9473 31.824 62.358 32.816 62.358 34C62.358 35.1733 61.9473 36.1707 61.126 36.992ZM55.91 36.256C56.518 36.864 57.2647 37.168 58.15 37.168C59.0353 37.168 59.782 36.864 60.39 36.256C60.998 35.6267 61.302 34.8747 61.302 34C61.302 33.1147 60.998 32.368 60.39 31.76C59.782 31.1413 59.0353 30.832 58.15 30.832C57.2647 30.832 56.518 31.1413 55.91 31.76C55.302 32.368 54.998 33.1147 54.998 34C54.998 34.8747 55.302 35.6267 55.91 36.256ZM68.2089 30V31.024H65.9049V35.872C65.9049 36.3093 65.9902 36.624 66.1609 36.816C66.3315 36.9973 66.5875 37.0933 66.9289 37.104C67.2702 37.104 67.6969 37.0933 68.2089 37.072V38C67.0675 38.1707 66.2195 38.0907 65.6649 37.76C65.1209 37.4187 64.8489 36.7893 64.8489 35.872V31.024H63.1689V30H64.8489V28.08L65.9049 27.76V30H68.2089ZM76.1885 36.992C75.3672 37.792 74.3752 38.192 73.2125 38.192C72.0285 38.192 71.0312 37.792 70.2205 36.992C69.4098 36.1813 69.0045 35.184 69.0045 34C69.0045 32.816 69.4098 31.824 70.2205 31.024C71.0312 30.2133 72.0285 29.808 73.2125 29.808C74.3858 29.808 75.3778 30.2133 76.1885 31.024C77.0098 31.824 77.4205 32.816 77.4205 34C77.4205 35.1733 77.0098 36.1707 76.1885 36.992ZM70.9725 36.256C71.5805 36.864 72.3272 37.168 73.2125 37.168C74.0978 37.168 74.8445 36.864 75.4525 36.256C76.0605 35.6267 76.3645 34.8747 76.3645 34C76.3645 33.1147 76.0605 32.368 75.4525 31.76C74.8445 31.1413 74.0978 30.832 73.2125 30.832C72.3272 30.832 71.5805 31.1413 70.9725 31.76C70.3645 32.368 70.0605 33.1147 70.0605 34C70.0605 34.8747 70.3645 35.6267 70.9725 36.256ZM82.2251 33.856L85.3451 38H84.0811L81.5851 34.704L79.0891 38H77.8251L80.9611 33.856L78.0331 30H79.2971L81.5851 33.024L83.8731 30H85.1371L82.2251 33.856Z" fill="#FF8C3A"/>
<defs>
<linearGradient id="paint0_linear_18_374" x1="17.3246" y1="3.67532" x2="17.3246" y2="38.3247" gradientUnits="userSpaceOnUse">
<stop stop-color="white"/>
<stop offset="1" stop-color="#FF8C3A"/>
</linearGradient>
<linearGradient id="paint1_linear_18_374" x1="14.7111" y1="7.60498" x2="14.7111" y2="8.976" gradientUnits="userSpaceOnUse">
<stop stop-color="white"/>
<stop offset="1" stop-color="#FF8C3A"/>
</linearGradient>
<clipPath id="clip0_18_374">
<rect width="34.6493" height="34.6493" fill="white" transform="translate(0 3.67532)"/>
</clipPath>
</defs>
</svg>
