<svg width="16" height="16" viewBox="0 0 16 16" fill="none" xmlns="http://www.w3.org/2000/svg">
<path d="M15.4575 12.8788L13.0838 10.5051C12.4175 9.83874 11.3372 9.83874 10.6709 10.5051L10.2995 10.8764C10.0006 11.1746 9.79295 11.5518 9.70082 11.9637C8.89623 11.9788 7.98632 11.842 7.20807 11.3371C6.73005 10.9817 6.27865 10.5919 5.85748 10.1708C5.50169 9.81519 5.16808 9.43809 4.85854 9.04159C4.25201 8.22671 4.09195 7.23781 4.10814 6.37109C4.52012 6.27898 4.8973 6.07131 5.19545 5.77243L5.56682 5.40106C6.23314 4.73474 6.23314 3.65443 5.56682 2.98809L3.1931 0.614368C2.74889 0.17015 2.02867 0.17015 1.58448 0.614368L1.17695 1.02199C0.654511 1.54443 0.387073 2.22487 0.373167 2.90952C0.239386 4.35406 0.516042 5.94424 1.17326 7.50821C1.6072 8.54084 2.20298 9.54912 2.92857 10.4863C2.93773 10.4986 2.94642 10.511 2.9557 10.5232L2.95676 10.5224C3.32722 10.9976 3.72663 11.4496 4.15273 11.8756C4.5931 12.3163 5.06099 12.7286 5.55357 13.1101L5.54882 13.1164C5.63089 13.1786 5.7146 13.2386 5.79985 13.2964C7.87051 14.828 10.2109 15.6884 12.3888 15.6883C12.516 15.6883 12.6429 15.6846 12.769 15.6787C13.5802 15.7785 14.4273 15.5177 15.05 14.895L15.4576 14.4874C15.9018 14.0432 15.9018 13.323 15.4575 12.8788Z" fill="white"/>
</svg>
