<svg width="21" height="21" viewBox="0 0 21 21" fill="none" xmlns="http://www.w3.org/2000/svg">
<path d="M10.5 8.02C10.0095 8.02 9.53002 8.16545 9.12219 8.43795C8.71435 8.71046 8.39648 9.09778 8.20878 9.55095C8.02107 10.0041 7.97196 10.5028 8.06765 10.9838C8.16334 11.4649 8.39954 11.9068 8.74638 12.2536C9.09321 12.6005 9.5351 12.8367 10.0162 12.9323C10.4972 13.028 10.9959 12.9789 11.4491 12.7912C11.9022 12.6035 12.2895 12.2856 12.562 11.8778C12.8346 11.47 12.98 10.9905 12.98 10.5C12.98 10.1743 12.9159 9.85183 12.7912 9.55095C12.6666 9.25006 12.4839 8.97666 12.2536 8.74638C12.0233 8.51609 11.7499 8.33341 11.4491 8.20878C11.1482 8.08415 10.8257 8.02 10.5 8.02ZM20.43 5.57C20.4247 4.79776 20.2825 4.03257 20.01 3.31C19.8093 2.78126 19.4987 2.30109 19.0988 1.90119C18.6989 1.50128 18.2187 1.19072 17.69 0.99C16.9674 0.717464 16.2022 0.575261 15.43 0.57C14.14 0.5 13.76 0.5 10.5 0.5C7.24 0.5 6.86 0.5 5.57 0.57C4.79776 0.575261 4.03257 0.717464 3.31 0.99C2.78126 1.19072 2.30109 1.50128 1.90119 1.90119C1.50128 2.30109 1.19072 2.78126 0.99 3.31C0.717464 4.03257 0.575261 4.79776 0.57 5.57C0.5 6.86 0.5 7.24 0.5 10.5C0.5 13.76 0.5 14.14 0.57 15.43C0.580764 16.205 0.722774 16.9725 0.99 17.7C1.18983 18.2263 1.50013 18.7037 1.9 19.1C2.29819 19.5023 2.77939 19.8129 3.31 20.01C4.03257 20.2825 4.79776 20.4247 5.57 20.43C6.86 20.5 7.24 20.5 10.5 20.5C13.76 20.5 14.14 20.5 15.43 20.43C16.2022 20.4247 16.9674 20.2825 17.69 20.01C18.2206 19.8129 18.7018 19.5023 19.1 19.1C19.4999 18.7037 19.8102 18.2263 20.01 17.7C20.2823 16.9739 20.4244 16.2055 20.43 15.43C20.5 14.14 20.5 13.76 20.5 10.5C20.5 7.24 20.5 6.86 20.43 5.57ZM17.89 13.57C17.8579 14.1871 17.7262 14.795 17.5 15.37C17.3059 15.8497 17.0173 16.2854 16.6514 16.6514C16.2854 17.0173 15.8497 17.3059 15.37 17.5C14.7895 17.7136 14.1783 17.8318 13.56 17.85H7.44C6.82173 17.8318 6.21049 17.7136 5.63 17.5C5.1341 17.3157 4.68628 17.0217 4.32 16.64C3.95767 16.2813 3.67784 15.8479 3.5 15.37C3.28556 14.7901 3.17061 14.1782 3.16 13.56V7.44C3.17061 6.82183 3.28556 6.20988 3.5 5.63C3.68428 5.1341 3.97827 4.68628 4.36 4.32C4.72033 3.95962 5.15326 3.68009 5.63 3.5C6.21049 3.28641 6.82173 3.16821 7.44 3.15H13.56C14.1783 3.16821 14.7895 3.28641 15.37 3.5C15.8659 3.68428 16.3137 3.97827 16.68 4.36C17.0423 4.71875 17.3222 5.15213 17.5 5.63C17.7136 6.21049 17.8318 6.82173 17.85 7.44V10.5C17.85 12.56 17.92 12.77 17.89 13.56V13.57ZM16.29 6.13C16.1709 5.80698 15.9832 5.51364 15.7398 5.27021C15.4964 5.02678 15.203 4.83906 14.88 4.72C14.4365 4.56626 13.9693 4.49179 13.5 4.5H7.5C7.02827 4.50461 6.56107 4.59263 6.12 4.76C5.80193 4.87366 5.51169 5.05371 5.26858 5.2882C5.02547 5.52269 4.83506 5.80624 4.71 6.12C4.56478 6.56537 4.49383 7.0316 4.5 7.5V13.5C4.50991 13.9712 4.59777 14.4375 4.76 14.88C4.87906 15.203 5.06678 15.4964 5.31021 15.7398C5.55364 15.9832 5.84698 16.1709 6.17 16.29C6.59667 16.4469 7.04565 16.5347 7.5 16.55H13.5C13.9717 16.5454 14.4389 16.4574 14.88 16.29C15.203 16.1709 15.4964 15.9832 15.7398 15.7398C15.9832 15.4964 16.1709 15.203 16.29 14.88C16.4574 14.4389 16.5454 13.9717 16.55 13.5V7.5C16.5503 7.0278 16.4621 6.55972 16.29 6.12V6.13ZM10.5 14.32C9.99882 14.32 9.50257 14.2211 9.03966 14.029C8.57676 13.8369 8.1563 13.5554 7.80238 13.2005C7.44846 12.8457 7.16803 12.4245 6.97714 11.9611C6.78626 11.4977 6.68868 11.0012 6.69 10.5C6.69 9.74405 6.9143 9.0051 7.33449 8.37669C7.75468 7.74828 8.35187 7.25866 9.05047 6.96983C9.74907 6.681 10.5177 6.60594 11.2589 6.75415C12.0002 6.90236 12.6808 7.26717 13.2147 7.80241C13.7485 8.33764 14.1116 9.01924 14.2578 9.7609C14.4041 10.5026 14.327 11.271 14.0363 11.9688C13.7457 12.6666 13.2545 13.2625 12.625 13.6811C11.9955 14.0996 11.2559 14.322 10.5 14.32ZM14.5 7.43C14.2789 7.4066 14.0744 7.30222 13.9257 7.13697C13.777 6.97172 13.6947 6.75729 13.6947 6.535C13.6947 6.31271 13.777 6.09828 13.9257 5.93303C14.0744 5.76778 14.2789 5.6634 14.5 5.64C14.7211 5.6634 14.9256 5.76778 15.0743 5.93303C15.223 6.09828 15.3053 6.31271 15.3053 6.535C15.3053 6.75729 15.223 6.97172 15.0743 7.13697C14.9256 7.30222 14.7211 7.4066 14.5 7.43Z" fill="white"/>
</svg>
