<svg width="19" height="19" viewBox="0 0 19 19" fill="none" xmlns="http://www.w3.org/2000/svg">
<path d="M10.3432 15.6568C12.0559 16.5188 14.0723 17.1404 16.4375 17.4063C17.0115 17.4709 17.5 17.011 17.5 16.4334V14.2808C17.5 13.8219 17.1877 13.4219 16.7425 13.3106L14.0493 12.6373C13.7085 12.5521 13.348 12.652 13.0996 12.9004L10.3432 15.6568ZM10.3432 15.6568C7.22749 14.0888 5.11705 11.725 3.74117 9.25883M3.74117 9.25883C2.43032 6.90926 1.78622 4.46674 1.57481 2.53084C1.51343 1.96884 1.96855 1.5 2.53389 1.5H4.6802C5.15688 1.5 5.56729 1.83646 5.66078 2.30388L6.39504 5.97521C6.46061 6.30307 6.35799 6.64201 6.12157 6.87843L3.74117 9.25883Z" stroke="white" stroke-width="2"/>
</svg>
