<svg width="21" height="13" viewBox="0 0 21 13" fill="none" xmlns="http://www.w3.org/2000/svg">
<path d="M20.394 11.0997C20.3698 11.0475 20.3472 11.0042 20.3262 10.9696C19.9792 10.3446 19.3161 9.57751 18.3373 8.66807L18.3166 8.64725L18.3062 8.63703L18.2958 8.62657H18.2853C17.841 8.20308 17.5597 7.91834 17.4419 7.77256C17.2264 7.49486 17.1781 7.21377 17.2959 6.92895C17.3791 6.71376 17.6918 6.25932 18.2331 5.56499C18.5178 5.19702 18.7433 4.9021 18.9099 4.67991C20.1109 3.08314 20.6317 2.06279 20.4719 1.61844L20.4099 1.51461C20.3682 1.45209 20.2606 1.3949 20.0872 1.34275C19.9135 1.2907 19.6914 1.28209 19.4206 1.31678L16.4217 1.3375C16.3731 1.32028 16.3037 1.32189 16.2133 1.34275C16.1231 1.36361 16.0779 1.37408 16.0779 1.37408L16.0257 1.40016L15.9843 1.43149C15.9496 1.4522 15.9114 1.48864 15.8697 1.54072C15.8282 1.59262 15.7935 1.65353 15.7658 1.72294C15.4393 2.56294 15.0681 3.34392 14.6515 4.06586C14.3946 4.49634 14.1587 4.86942 13.9433 5.18531C13.7281 5.50109 13.5476 5.73375 13.4019 5.88288C13.256 6.03217 13.1244 6.15176 13.0061 6.2421C12.8881 6.33248 12.7979 6.37067 12.7355 6.3567C12.673 6.34273 12.6141 6.32887 12.5583 6.31501C12.4612 6.2525 12.3831 6.16748 12.3242 6.05989C12.265 5.95229 12.2252 5.81687 12.2044 5.65373C12.1836 5.49048 12.1714 5.35006 12.1679 5.232C12.1646 5.11408 12.1661 4.94729 12.1732 4.7321C12.1804 4.51681 12.1836 4.37113 12.1836 4.29476C12.1836 4.03092 12.1888 3.74457 12.1991 3.43565C12.2096 3.12673 12.2181 2.88196 12.2252 2.70164C12.2323 2.52114 12.2356 2.33017 12.2356 2.12884C12.2356 1.92751 12.2233 1.76962 12.1991 1.65503C12.1752 1.54057 12.1385 1.42948 12.0901 1.32178C12.0414 1.21418 11.9701 1.13095 11.8766 1.07187C11.7829 1.01285 11.6664 0.966023 11.5278 0.931228C11.1598 0.847962 10.6912 0.802918 10.1219 0.795915C8.83069 0.782056 8.00105 0.865432 7.63311 1.04593C7.48733 1.1222 7.35541 1.2264 7.23746 1.35821C7.11247 1.511 7.09503 1.59437 7.18527 1.60809C7.60186 1.67049 7.89677 1.81977 8.07035 2.05579L8.1329 2.18085C8.18155 2.27108 8.23013 2.43083 8.27875 2.65988C8.32729 2.88893 8.35862 3.1423 8.37241 3.41986C8.40706 3.92672 8.40706 4.36059 8.37241 4.72153C8.33765 5.0826 8.30483 5.3637 8.2735 5.56503C8.24217 5.76635 8.19534 5.9295 8.1329 6.05441C8.07035 6.17937 8.02873 6.25574 8.00787 6.28346C7.98704 6.31118 7.96968 6.32865 7.95589 6.33551C7.86566 6.37008 7.77182 6.3877 7.67469 6.3877C7.57742 6.3877 7.45947 6.33905 7.32065 6.24181C7.18188 6.14457 7.03784 6.01101 6.88856 5.8409C6.73928 5.67076 6.57092 5.433 6.38342 5.12757C6.19606 4.82215 6.00166 4.46119 5.80033 4.04467L5.63376 3.7426C5.52963 3.54828 5.38739 3.26532 5.20689 2.894C5.02628 2.52252 4.86664 2.1632 4.72786 1.81609C4.67238 1.67031 4.58904 1.55932 4.47798 1.48295L4.42587 1.45162C4.39122 1.4239 4.3356 1.39447 4.2593 1.3631C4.18289 1.33177 4.10316 1.3093 4.01978 1.29548L1.16657 1.3162C0.87501 1.3162 0.677184 1.38225 0.573018 1.51417L0.53133 1.57657C0.510504 1.61133 0.5 1.66684 0.5 1.74325C0.5 1.81963 0.520826 1.91336 0.562514 2.02435C0.97903 3.00327 1.43198 3.94736 1.92137 4.85677C2.41076 5.76617 2.83603 6.49872 3.19692 7.05376C3.55789 7.6092 3.92583 8.13342 4.30073 8.62616C4.67563 9.11909 4.92379 9.43498 5.04521 9.57376C5.16677 9.71279 5.26225 9.81674 5.33166 9.88614L5.59204 10.136C5.75865 10.3027 6.0033 10.5022 6.32612 10.7348C6.64901 10.9674 7.00648 11.1965 7.3987 11.4223C7.791 11.6477 8.24738 11.8317 8.7681 11.9739C9.28875 12.1164 9.7955 12.1735 10.2884 12.1459H11.486C11.7288 12.125 11.9128 12.0486 12.0379 11.9168L12.0793 11.8646C12.1072 11.8232 12.1333 11.7588 12.1573 11.6722C12.1817 11.5854 12.1938 11.4898 12.1938 11.3858C12.1867 11.0874 12.2094 10.8184 12.2614 10.5789C12.3133 10.3395 12.3724 10.159 12.4386 10.0374C12.5047 9.91598 12.5793 9.81349 12.6624 9.73041C12.7456 9.64714 12.8049 9.5967 12.8397 9.57934C12.8743 9.56187 12.9019 9.55001 12.9227 9.5429C13.0893 9.48739 13.2854 9.54115 13.5112 9.70444C13.7369 9.86758 13.9485 10.069 14.1465 10.3084C14.3444 10.548 14.5821 10.8169 14.8597 11.1153C15.1376 11.4139 15.3805 11.6358 15.5886 11.7818L15.7968 11.9068C15.9359 11.9902 16.1164 12.0665 16.3386 12.136C16.5603 12.2053 16.7547 12.2227 16.9215 12.188L19.5872 12.1464C19.8509 12.1464 20.056 12.1028 20.2015 12.0161C20.3474 11.9294 20.434 11.8338 20.4619 11.7298C20.4898 11.6257 20.4913 11.5076 20.4672 11.3756C20.4425 11.2439 20.4182 11.1518 20.394 11.0997Z" fill="white"/>
</svg>
